<?xml version="1.0" standalone="no"?>
<!DOCTYPE svg PUBLIC "-//W3C//DTD SVG 20010904//EN"
 "http://www.w3.org/TR/2001/REC-SVG-20010904/DTD/svg10.dtd">
<svg version="1.0" xmlns="http://www.w3.org/2000/svg"
 width="3513.000000pt" height="1456.000000pt" viewBox="0 0 3513.000000 1456.000000"
 preserveAspectRatio="xMidYMid meet">

<g transform="translate(0.000000,1456.000000) scale(0.100000,-0.100000)"
fill="#000000" stroke="none">
<path d="M1276 12308 c-50 -14 -112 -76 -126 -126 -7 -28 -9 -1385 -8 -4485
l3 -4445 30 -43 c17 -23 48 -52 70 -63 l40 -21 16410 0 16410 0 40 21 c22 11
54 40 70 63 l30 43 0 4468 0 4468 -30 43 c-16 23 -48 52 -70 63 l-40 21
-16395 1 c-11194 1 -16407 -1 -16434 -8z m32840 -122 l34 -34 0 -4432 0 -4432
-34 -34 -34 -34 -16392 2 -16392 3 -29 33 -29 32 0 4429 0 4428 21 27 c12 15
31 32 43 36 12 5 7383 9 16400 9 l16378 1 34 -34z"/>
<path d="M9790 11688 c0 -7 -260 -273 -577 -590 l-578 -578 588 -2 587 -3 0
583 c0 320 0 585 1 589 0 4 -4 9 -10 11 -6 2 -11 -2 -11 -10z"/>
<path d="M10963 10488 c-278 -817 -407 -1205 -399 -1210 6 -4 373 -8 815 -8
707 0 802 2 797 15 -3 8 -163 497 -356 1087 -193 590 -369 1128 -391 1196 -23
67 -44 122 -48 122 -4 0 -192 -541 -418 -1202z"/>
<path d="M12952 7673 l3 -4008 795 -3 c437 -1 805 0 818 3 l22 5 0 612 0 611
79 -119 c102 -153 190 -262 310 -383 376 -378 872 -620 1401 -686 106 -13 319
-15 1447 -15 l1323 0 0 800 0 799 -1297 3 -1298 3 -80 23 c-44 12 -123 43
-175 68 -79 39 -109 62 -186 138 -102 102 -159 191 -198 307 -52 156 -57 296
-15 457 73 278 299 503 573 572 77 19 116 20 1481 20 l1401 0 19 78 c32 136
104 333 175 477 199 405 513 748 905 990 l97 60 -2023 3 c-1418 2 -2054 0
-2124 -8 -661 -73 -1260 -421 -1664 -969 -34 -46 -81 -116 -104 -155 l-42 -71
-5 2195 -5 2195 -818 3 -817 2 2 -4007z"/>
<path d="M7525 9413 c-308 -309 -566 -563 -573 -563 -7 0 -10 -4 -7 -10 4 -6
506 -10 1436 -10 l1429 0 0 575 0 575 -862 -2 -863 -1 -560 -564z"/>
<path d="M27584 8511 c3 -5 38 -28 77 -51 189 -112 450 -340 595 -520 113
-139 266 -381 310 -488 l9 -22 1965 0 1965 0 532 532 c293 293 533 539 533
545 0 10 -601 13 -2996 13 -1710 0 -2993 -4 -2990 -9z"/>
<path d="M22133 8490 c-1033 -98 -1890 -842 -2126 -1845 -64 -271 -61 -194
-64 -1639 -3 -1068 -1 -1321 9 -1328 16 -10 1569 -10 1585 0 10 6 13 294 15
1267 l3 1260 23 80 c70 247 221 427 446 530 184 85 423 89 616 13 238 -95 416
-297 479 -545 21 -80 21 -98 21 -1341 0 -1140 2 -1260 16 -1266 23 -9 1567 -7
1581 2 9 6 13 296 15 1267 l3 1260 23 80 c110 392 466 636 866 593 140 -15
235 -50 362 -134 163 -107 275 -267 325 -464 19 -72 19 -125 19 -1336 0 -1145
1 -1262 16 -1268 8 -3 368 -6 799 -6 659 0 784 2 794 14 9 11 11 337 8 1323
-4 1426 -1 1372 -62 1628 -152 644 -551 1188 -1123 1530 -259 155 -565 262
-892 312 -158 24 -509 24 -670 -1 -453 -68 -872 -252 -1199 -526 l-72 -61 -44
40 c-24 22 -80 67 -124 100 -316 234 -691 388 -1086 446 -129 19 -430 27 -562
15z"/>
<path d="M10552 6078 l3 -2413 795 -3 c437 -1 805 0 818 3 l22 5 -2 2408 -3
2407 -818 3 -817 2 2 -2412z"/>
<path d="M5813 7698 c-324 -324 -594 -588 -601 -588 -8 0 -12 -5 -10 -11 2 -6
7 -10 11 -10 4 1 1040 1 2302 1 l2295 0 0 598 0 597 -1705 0 -1705 0 -587
-587z"/>
<path d="M28746 6858 c-7 -73 -8 -985 0 -1013 5 -20 12 -20 1082 -18 l1077 3
537 537 c296 296 538 541 538 545 0 5 -726 8 -1614 8 l-1613 0 -7 -62z"/>
<path d="M4095 5980 c-316 -316 -575 -574 -575 -575 0 0 1415 0 3145 0 l3145
0 0 575 0 575 -2570 0 -2570 0 -575 -575z"/>
<path d="M28746 5285 c-9 -31 -7 -1605 2 -1605 8 0 1622 1612 1622 1620 0 3
-364 5 -809 5 -801 0 -810 0 -815 -20z"/>
<path d="M2377 4262 c-323 -323 -587 -589 -587 -592 0 -3 1813 -4 4030 -2
2672 1 4030 5 4030 12 0 6 -9 10 -20 10 -20 0 -20 7 -20 580 l0 580 -3423 0
-3422 0 -588 -588z"/>
<path d="M17568 1945 c-87 -22 -148 -54 -204 -110 -123 -122 -127 -322 -9
-453 73 -81 124 -102 464 -197 51 -14 107 -35 123 -47 43 -30 61 -79 48 -127
-24 -91 -98 -135 -230 -135 -98 -1 -147 13 -197 57 -39 34 -83 117 -83 156 l0
23 -97 -6 c-160 -11 -163 -13 -157 -50 27 -154 115 -290 223 -346 154 -78 435
-81 595 -5 229 108 285 431 104 601 -75 71 -127 93 -359 154 -224 59 -269 86
-269 160 0 60 63 104 166 115 133 15 227 -30 261 -126 l18 -49 75 0 c41 0 99
3 129 7 l53 6 -5 42 c-16 112 -90 226 -182 280 -101 60 -327 83 -467 50z"/>
<path d="M14830 1305 l0 -635 353 0 c369 0 437 6 516 43 151 71 232 279 171
439 -26 70 -90 138 -155 164 -25 11 -45 22 -45 25 0 4 16 17 35 30 74 50 125
153 125 250 0 105 -75 226 -169 274 -78 39 -144 45 -498 45 l-333 0 0 -635z
m677 402 c47 -25 67 -61 67 -123 1 -60 -20 -97 -75 -129 -30 -18 -56 -20 -221
-24 l-188 -3 0 152 0 152 193 -4 c158 -3 198 -7 224 -21z m25 -515 c64 -28 88
-68 88 -149 0 -52 -4 -66 -26 -93 -51 -59 -69 -64 -296 -68 l-208 -4 0 172 0
173 198 -5 c172 -4 203 -7 244 -26z"/>
<path d="M16110 1305 l0 -635 480 0 480 0 0 105 0 105 -350 0 -350 0 0 180 0
180 315 0 315 0 0 105 0 105 -315 0 -315 0 0 140 0 140 340 0 340 0 0 105 0
105 -470 0 -470 0 0 -635z"/>
<path d="M18463 1493 c7 -568 15 -608 127 -719 90 -89 198 -124 390 -124 275
0 424 93 478 300 12 43 16 155 19 523 l5 467 -130 0 -131 0 -3 -462 c-4 -514
-2 -505 -71 -565 -75 -66 -235 -69 -330 -7 -27 18 -47 43 -64 81 l-26 56 -5
449 -5 448 -130 0 -130 0 6 -447z"/>
<path d="M19660 1835 l0 -105 185 0 185 0 0 -530 0 -530 130 0 130 0 0 530 0
530 190 0 190 0 0 105 0 105 -505 0 -505 0 0 -105z"/>
</g>
</svg>
