<?xml version="1.0" standalone="no"?>
<!DOCTYPE svg PUBLIC "-//W3C//DTD SVG 20010904//EN"
 "http://www.w3.org/TR/2001/REC-SVG-20010904/DTD/svg10.dtd">
<svg version="1.0" xmlns="http://www.w3.org/2000/svg"
 width="474.000000pt" height="334.000000pt" viewBox="0 0 474.000000 334.000000"
 preserveAspectRatio="xMidYMid meet">
<metadata>
Created by potrace 1.16, written by Peter Selinger 2001-2019
</metadata>
<g transform="translate(0.000000,334.000000) scale(0.100000,-0.100000)"
fill="#000000" stroke="none">
<path d="M37 2223 l-36 -28 0 -590 0 -590 36 -27 36 -28 2230 0 2229 0 34 34
34 34 0 577 0 577 -34 34 -34 34 -2229 0 -2230 0 -36 -27z m4517 -19 l26 -27
0 -564 c0 -579 -1 -591 -39 -620 -12 -10 -507 -12 -2238 -13 -1222 0 -2229 3
-2238 6 -44 17 -45 31 -45 627 l0 564 26 27 27 26 2227 0 2227 0 27 -26z"/>
<path d="M1084 1995 c-55 -58 -98 -107 -96 -110 3 -3 52 -5 109 -5 l103 0 0
110 c0 61 -4 110 -8 110 -5 0 -53 -47 -108 -105z"/>
<path d="M1340 1942 c-30 -86 -56 -162 -58 -169 -2 -9 26 -12 112 -12 64 1
116 3 116 6 0 11 -103 318 -109 325 -3 4 -31 -63 -61 -150z"/>
<path d="M1585 2078 c-3 -7 -4 -236 -3 -508 l3 -495 118 -3 117 -3 0 62 0 62
49 -46 c73 -68 114 -77 353 -77 l198 0 0 110 0 110 -192 2 -191 3 -19 37 c-17
32 -18 43 -8 72 19 59 25 61 233 66 l189 5 15 44 c19 57 55 113 87 139 14 11
26 23 26 27 0 3 -129 5 -287 3 -278 -3 -289 -4 -331 -26 -24 -13 -61 -41 -82
-62 l-40 -40 0 265 0 265 -115 0 c-83 0 -117 -3 -120 -12z"/>
<path d="M857 1762 c-37 -37 -67 -71 -67 -75 0 -4 92 -7 205 -7 l205 0 0 75 0
75 -138 0 -138 0 -67 -68z"/>
<path d="M3145 1695 c-27 -7 -68 -22 -89 -33 l-39 -19 -56 25 c-74 35 -214 38
-276 7 -56 -28 -114 -89 -152 -161 l-33 -62 0 -185 c0 -117 4 -188 10 -192 6
-4 55 -3 110 1 l100 7 0 173 0 173 26 20 c36 28 86 27 121 -3 l28 -24 4 -171
3 -171 108 0 107 0 7 61 c3 34 6 113 6 175 l0 113 33 25 c39 30 57 32 95 12
51 -26 56 -49 48 -226 l-8 -161 114 3 113 3 3 184 2 184 -29 61 c-75 158 -205
224 -356 181z"/>
<path d="M3504 1650 c24 -22 57 -65 72 -95 l29 -55 306 0 307 0 98 95 99 94
-477 1 -478 0 44 -40z"/>
<path d="M1290 1375 l0 -305 110 0 110 0 0 295 c0 162 1 298 3 303 1 4 -49 8
-110 10 l-113 3 0 -306z"/>
<path d="M649 1553 l-74 -78 158 -3 c86 -1 227 -1 313 0 l155 3 2 75 2 75
-241 3 -240 2 -75 -77z"/>
<path d="M509 1408 c-9 -7 -40 -39 -69 -70 l-53 -58 412 0 412 0 -3 68 -3 67
-340 3 c-263 2 -344 -1 -356 -10z"/>
<path d="M3610 1200 l0 -110 208 0 207 0 86 88 c46 48 93 97 103 110 l19 22
-311 0 -312 0 0 -110z"/>
<path d="M259 1153 c-43 -42 -79 -81 -79 -86 0 -7 74 -8 208 -4 114 4 346 7
515 7 l308 0 -3 78 -3 77 -434 3 -433 2 -79 -77z"/>
</g>
</svg>
